<svg xmlns="http://www.w3.org/2000/svg" width="1279.983" height="2092.924" viewBox="0 0 1279.983 2092.924">
    <path id="Path_14" data-name="Path 14" d="M2751.957,1889.561l213.231-122.968-.236-738.678-639.433,369.366,213.269,123.136,213.284-123.042v246.176L2539.109,1766.5l-.7-.407-213.442,123.226-425.682-245.771-.478-492.634,426.558-246.274,212.872,123.272,213.215-123.272L2325.362,658.465l-639.9,369.45-.252,738.678,426.214,246.133V2258.8l212.856,122.559,214.13-122.9L2324.276,2135.9l.218-.124.229.141,213.744-123.26L2751.831,2135.9v246.126l-214.408,123.178-213.147-123.849-212.856,123.283,427.369,246.75,426.4-246.184-.389-492.584Z" transform="translate(-1685.205 -658.465)" fill="#f8f9fa"/>
</svg>
